<svg xmlns="http://www.w3.org/2000/svg" xmlns:xlink="http://www.w3.org/1999/xlink" viewBox="0 0 751.4 505.8" xmlns:v="https://vecta.io/nano"><style><![CDATA[.R{fill:#263238}.S{fill:#d6aba7}.T{fill:#6f4c47}.U{fill:#872a33}.V{fill:#f5f5f5}.W{fill:#e0e0e0}.X{fill:#23416d}.Y{fill:#7f9390}]]></style><g class="V"><path d="M421.9 180l-84.6-.8-25.6-.1h-7-1.8-.6.6 1.8l7 .1 25.6.1 84.6.1 84.6.2 25.6.3 7 .2 2.4.2s-.8.1-2.4.2l-7 .1c-6.1.1-14.8.1-25.6 0-21.6 0-51.5-.2-84.6-.6z"/><path d="M421.3 187.3l-83.5-13.6-25.3-4-6.9-1-1.8-.2c-.4-.1-.6-.1-.6-.1s.2.1.6.1c.4.1 1 .2 1.8.3l6.9 1.1 25.3 4 83.6 12.8 83.5 13 25.3 4.2 6.9 1.2a46.18 46.18 0 0 1 2.4.5c0 .1-.8 0-2.4-.2l-6.9-.9-25.3-3.8-83.6-13.4z"/><path d="M419.5 194.3l-80.2-26.2-24.4-7.8-6.6-2.1-1.7-.5c-.4-.1-.6-.2-.6-.2s.2.1.6.2 1 .3 1.7.6l6.6 2.2 24.3 7.8 80.5 25.5 80.4 25.6 24.3 8 6.6 2.3c1.5.5 2.3.8 2.3.9s-.8-.1-2.4-.6l-6.7-2-24.4-7.7-80.3-26z"/><path d="M416.5 201l-75-38.1-22.8-11.4-6.2-3.1c-.7-.3-1.2-.6-1.6-.8s-.6-.3-.6-.2c0 0 .2.1.5.3l1.6.8 6.2 3.2 22.8 11.5 75.4 37.5 75.3 37.6 22.7 11.6 6.1 3.2 2.1 1.2c0 .1-.8-.3-2.2-.9l-6.3-3-22.9-11.3-75.1-38.1z"/><path d="M412.5 207.2l-67.9-49-20.7-14.8-5.6-4-1.5-1-.5-.3s.2.1.5.4.8.6 1.4 1.1l5.6 4.1 20.7 14.8 68.4 48.4 68.3 48.5 20.6 14.9 5.5 4.1 1.9 1.5s-.7-.4-2.1-1.3l-5.7-3.9-20.8-14.6-68.1-48.9z"/><path d="M407.6 212.7L348.3 154l-18.1-17.7-4.9-4.8c-.6-.5-1-.9-1.3-1.2s-.5-.4-.5-.4.1.2.4.5l1.3 1.3 4.9 4.9 18 17.7 59.8 58.2 59.7 58.3 17.9 17.8 4.8 4.9c1.1 1.1 1.6 1.8 1.6 1.8s-.7-.5-1.8-1.6l-5-4.7-18.2-17.6-59.3-58.7z"/><path d="M401.9 217.3l-49.2-67-15-20.2-4.1-5.5-1.1-1.4c-.2-.3-.4-.5-.4-.5s.1.2.3.5.6.8 1 1.4l4 5.5 15 20.2 49.8 66.5 49.6 66.6 14.9 20.3 4 5.6 1.3 2s-.6-.6-1.6-1.8-2.4-3.1-4.2-5.4L451.1 284l-49.2-66.7z"/><path d="M395.5 221.1l-37.8-73.6-11.6-22.3-3.2-6c-.4-.7-.6-1.2-.8-1.6l-.3-.5s.1.2.2.6l.8 1.6 3.1 6.1 11.5 22.3 38.5 73.3 38.3 73.3 11.4 22.3 3 6.1c.7 1.4 1 2.2.9 2.2s-.5-.7-1.3-2l-3.3-6-11.7-22.2-37.7-73.6z"/><path d="M388.5 223.8l-25.4-78.5-7.8-23.7-2.2-6.4c-.3-.7-.4-1.3-.6-1.7-.1-.4-.2-.6-.2-.6s0 .2.2.6l.5 1.7 2.1 6.5 7.8 23.7 26.1 78.2 26 78.3 7.6 23.8 2 6.5.6 2.3c-.1 0-.4-.7-.9-2.2s-1.3-3.6-2.3-6.4l-8-23.7-25.5-78.4z"/><path d="M381.2 225.4L368.8 144l-3.9-24.6-1.1-6.7-.3-1.7s-.1-.6-.1-.6 0 .2.1.6.1 1 .2 1.7l1 6.7 3.9 24.6 13.1 81.3 13 81.3 3.7 24.7.9 6.7c.2 1.5.3 2.4.2 2.4s-.2-.8-.5-2.3-.7-3.8-1.2-6.7l-4-24.6-12.6-81.4z"/><path d="M373.8 225.9l.8-82.3.1-24.9v-6.8-1.8-.6.6 1.8l-.1 6.8-.1 24.9v82.3l-.1 82.2-.3 24.9-.2 6.8-.2 2.4s-.1-.8-.2-2.4l-.1-6.8-.1-24.9.5-82.2z"/><path d="M366.3 225.3l13.9-81.1 4.1-24.6 1.1-6.7c.1-.8.2-1.3.3-1.7s.1-.6.1-.6-.1.2-.1.6c-.1.4-.2 1-.3 1.7l-1.2 6.7-4.1 24.6-13.1 81.3-13.3 81.2-4.3 24.6-1.3 6.7c-.3 1.5-.5 2.3-.6 2.3s0-.8.2-2.4l1-6.7 3.9-24.6 13.7-81.3z"/><path d="M359.1 223.5l26.9-78 8-23.7 2.1-6.5.5-1.7c.1-.4.2-.6.2-.6s-.1.2-.2.6-.3.9-.6 1.7l-2.2 6.4-8 23.7-26.1 78.2-26.3 78.2-8.2 23.6-2.3 6.4-.9 2.2c-.1 0 .1-.8.6-2.3l2-6.5 7.9-23.7 26.6-78z"/><path d="M352.2 220.6l39.2-72.9 11.8-22.2 3.2-6c.3-.7.6-1.2.8-1.6s.3-.5.2-.6c0 0-.1.2-.3.5l-.9 1.6-3.2 6-11.8 22.1-38.5 73.3-38.6 73.2-11.9 22.1-3.3 6c-.8 1.4-1.2 2-1.3 2s.3-.8 1-2.2 1.7-3.5 3.1-6.1l11.6-22.2 38.9-73z"/><path d="M345.8 216.8l50.4-66.1 15.2-20.1 4.1-5.5c.5-.6.8-1.1 1-1.4s.3-.5.3-.5-.1.1-.4.5c-.3.3-.6.8-1.1 1.4l-4.2 5.4-15.2 20.1-49.8 66.5-49.9 66.4-15.3 20-4.2 5.4-1.6 1.8c0 0 .4-.7 1.3-2s2.3-3.2 4-5.5l15.1-20.2 50.3-66.2z"/><path d="M340.2 212l60.4-57.6 18.2-17.6 4.9-4.8 1.3-1.3.4-.4s-.2.1-.5.4a18.05 18.05 0 0 1-1.3 1.2l-5 4.7-18.2 17.5-59.8 58.2-59.9 58-18.3 17.4-5.1 4.7-1.8 1.5c0 0 .5-.7 1.6-1.8l4.8-4.9 18.1-17.7 60.2-57.5z"/><path d="M335.4 206.4l68.9-47.8 20.8-14.6 5.6-4c.6-.5 1.1-.8 1.5-1.1.3-.2.5-.4.5-.4s-.2.1-.5.3c-.4.2-.8.6-1.5 1l-5.7 3.9-20.8 14.6-68.4 48.4-68.5 48.3-20.9 14.4-5.7 3.8c-1.3.9-2 1.3-2.1 1.2 0 0 .6-.6 1.9-1.5s3.1-2.3 5.6-4.1l20.7-14.7 68.6-47.7z"/><path d="M331.5 200.2l75.7-36.8 22.9-11.2 6.2-3.1c.7-.4 1.2-.6 1.6-.8s.5-.3.5-.3-.2.1-.6.2l-1.6.8-6.2 3-22.9 11.2-75.4 37.4-75.4 37.3-23 11.1-6.3 2.9c-1.4.7-2.2 1-2.2.9s.7-.5 2.1-1.2l6.2-3.2 22.8-11.4 75.6-36.8z"/><path d="M328.7 193.5l80.7-24.7 24.4-7.6 6.6-2.1c.7-.2 1.3-.4 1.7-.6.4-.1.6-.2.6-.2s-.2 0-.6.1-1 .3-1.7.5l-6.7 2-24.4 7.6-80.5 25.4-80.5 25.3-24.5 7.4-6.7 1.9s-2.4.6-2.4.6c0-.1.8-.4 2.3-.9s3.7-1.3 6.6-2.2l24.4-7.8 80.7-24.7z"/><path d="M327.1 186.4l83.7-12.1 25.4-3.8 6.9-1.1 1.8-.3s.6-.1.6-.1-.2 0-.6.1-1 .1-1.8.2l-6.9 1-25.4 3.8-83.6 12.8-83.6 12.7-25.4 3.6-6.9.9-2.4.2c0-.1.8-.2 2.4-.5l6.9-1.2 25.3-3.9 83.6-12.3z"/><path d="M326.6 179.1l84.6.7 25.6.1h7 1.8.6-.6-1.8c-1.6 0-4 0-7-.1-6.1 0-14.8-.1-25.6-.1h-84.6c-33 0-62.9 0-84.6-.1l-25.6-.3-7-.2c-1.6-.1-2.4-.1-2.4-.2s.8-.1 2.4-.2l7-.1 25.6-.1 84.6.6z"/><path d="M327.2 171.9l83.5 13.5 25.3 4 6.9 1 1.8.2c.4.1.6.1.6.1s-.2-.1-.6-.1c-.4-.1-1-.2-1.8-.3l-6.9-1.1-25.3-4-83.6-12.7-83.6-12.9-25.3-4.1-6.9-1.2-2.4-.5c0-.1.8 0 2.4.2l6.9.9 25.3 3.8 83.7 13.2z"/><path d="M329 164.8l80.3 26.1 24.4 7.8 6.6 2.1 1.7.5c.4.1.6.2.6.2s-.2-.1-.6-.2-1-.3-1.7-.6l-6.6-2.2-24.4-7.8-80.5-25.4-80.4-25.5-24.3-8-6.6-2.3c-1.5-.5-2.3-.8-2.3-.9s.8.1 2.4.6l6.7 2 24.4 7.6 80.3 26z"/><path d="M331.9 158.1l75.1 38 22.8 11.4 6.2 3.1c.7.3 1.2.6 1.6.8s.6.3.6.2c0 0-.2-.1-.5-.3l-1.6-.8-6.2-3.2-22.8-11.4-75.4-37.4-75.3-37.5-22.7-11.6-6.1-3.2-2.1-1.2c0-.1.8.3 2.2.9l6.3 3 22.9 11.3 75 37.9z"/><path d="M335.9 152l68 49 20.7 14.7 5.7 4 1.5 1 .5.3s-.2-.1-.5-.4-.8-.6-1.4-1.1l-5.6-4.1-20.7-14.8-68.5-48.4-68.4-48.5-20.6-14.9-5.5-4.1-1.9-1.5a53.43 53.43 0 0 0 2.1 1.3l5.7 3.9 20.8 14.6 68.1 49z"/><path d="M340.8 146.5l59.3 58.6 18.1 17.7a159.8 159.8 0 0 0 5 4.8c.6.5 1 .9 1.3 1.2s.5.4.5.4-.1-.2-.4-.5l-1.3-1.3-4.9-4.8-18.1-17.7-59.9-58.1-59.8-58.2-17.9-17.8-4.8-4.9c-1.1-1.1-1.6-1.8-1.6-1.8s.7.5 1.8 1.6l5 4.7L281.3 88l59.5 58.5z"/><path d="M346.6 141.8l49.2 66.9 15 20.2 4.1 5.5 1.1 1.4a3.61 3.61 0 0 0 .4.5s-.1-.2-.3-.5-.6-.8-1-1.4l-4-5.5-15-20.2-49.9-66.5-49.7-66.5-14.9-20.3-4-5.6-1.3-2s.6.6 1.6 1.8 2.4 3 4.2 5.4l15.2 20.1 49.3 66.7z"/><path d="M353 138.1l37.9 73.6 11.6 22.2 3.2 6 .9 1.6.3.5s-.1-.2-.2-.6l-.8-1.6-3.1-6.1-11.6-22.2-38.6-73.2L314.2 65l-11.4-22.3-3-6.1c-.7-1.4-1-2.2-.9-2.2s.5.7 1.3 2l3.3 6 11.7 22.2 37.8 73.5z"/><path d="M359.9 135.3l25.5 78.4 7.8 23.7 2.2 6.4c.3.7.4 1.3.6 1.7.1.4.2.6.2.6s0-.2-.2-.6l-.5-1.7-2.1-6.5-7.8-23.7-26.2-78.2-26.1-78.2-7.7-23.8-2-6.5-.6-2.3c.1 0 .4.7.9 2.2s1.3 3.6 2.3 6.4l8 23.7 25.7 78.4z"/><path d="M367.2 133.7l12.5 81.4 3.9 24.6 1.1 6.7.3 1.7s.1.6.1.6 0-.2-.1-.6-.1-1-.2-1.7l-1-6.7-3.9-24.6-13.2-81.2-13.1-81.2-3.7-24.7-.9-6.7-.2-2.4s.2.8.5 2.3.7 3.8 1.2 6.7l4.1 24.6 12.6 81.2z"/><path d="M374.7 133.2l-.7 82.3-.1 24.9v6.8 1.8.6-.6-1.8l.1-6.8.1-24.9-.1-82.3V51l.2-24.9.2-6.8.2-2.4s.1.8.2 2.4l.1 6.8.1 24.9-.3 82.2z"/><path d="M382.1 133.8L368.3 215l-4.1 24.6-1.1 6.7c-.1.8-.2 1.3-.3 1.7s-.1.6-.1.6.1-.2.1-.6c.1-.4.2-1 .3-1.7l1.2-6.7 4.1-24.6 13-81.3 13.2-81.2 4.2-24.6 1.3-6.7c.3-1.5.5-2.3.6-2.3s0 .8-.2 2.4l-1 6.7-3.9 24.6-13.5 81.2z"/><path d="M389.4 135.6l-26.8 78-8 23.7-2.1 6.5-.5 1.7c-.1.4-.2.6-.2.6s.1-.2.2-.6.3-.9.6-1.7l2.2-6.4 8-23.7 26-78.3L415 57.2l8.2-23.6 2.3-6.4c.5-1.5.9-2.2.9-2.2.1 0-.1.8-.6 2.3l-2 6.5-7.8 23.7-26.6 78.1z"/><path d="M396.3 138.4l-39.1 73-11.7 22.2-3.1 6c-.3.7-.6 1.2-.8 1.6s-.3.5-.2.6.1-.2.3-.5l.9-1.6 3.2-6 11.7-22.2 38.4-73.3L434.4 65l11.9-22.1 3.3-6c.8-1.4 1.2-2.1 1.3-2 .1 0-.3.8-1 2.2s-1.7 3.5-3.1 6.1l-11.6 22.2-38.9 73z"/><path d="M402.6 142.3l-50.3 66.1-15.2 20.1-4.1 5.5-1 1.4s-.3.5-.3.5.1-.1.4-.5c.3-.3.6-.8 1.1-1.4l4.2-5.4 15.2-20.1 49.7-66.6 49.8-66.5 15.3-20 4.2-5.4 1.6-1.8c0 0-.4.7-1.3 2s-2.2 3.2-4 5.6l-15 20.2-50.3 66.3z"/><path d="M408.2 147.1l-60.3 57.7-18.2 17.6-4.9 4.8-1.3 1.3-.4.4s.2-.1.5-.4a18.05 18.05 0 0 1 1.3-1.2l5-4.7 18.2-17.6 59.8-58.2 59.8-58.1L486 71.2l5.1-4.7 1.8-1.5c0 0-.5.7-1.6 1.8l-4.8 4.9-18.1 17.7-60.2 57.7z"/><path d="M413.1 152.6l-68.8 47.9-20.8 14.6-5.6 4-1.4 1.1c-.3.2-.5.4-.5.4s.2-.1.5-.3c.4-.2.8-.6 1.5-1l5.7-3.9 20.8-14.6 68.4-48.5 68.4-48.4 20.9-14.5 5.7-3.9c1.3-.9 2-1.3 2.1-1.2 0 0-.6.6-1.9 1.5l-5.6 4.1-20.7 14.7-68.7 48z"/><path d="M416.9 158.8l-75.7 36.9-22.9 11.3-6.2 3.1c-.7.4-1.2.6-1.6.8s-.5.3-.5.3.2-.1.6-.2l1.6-.8 6.2-3 22.9-11.3 75.3-37.5L492 121l23-11.1 6.3-2.9c1.4-.7 2.2-1 2.2-.9s-.7.5-2.1 1.2l-6.2 3.2-22.8 11.4-75.5 36.9z"/><path d="M419.7 165.6L339 190.4l-24.4 7.6-6.6 2.1c-.7.2-1.3.4-1.7.6-.4.1-.6.2-.6.2s.2 0 .6-.1 1-.3 1.7-.5l6.7-2 24.4-7.6 80.5-25.5 80.5-25.4 24.5-7.5 6.7-1.9s2.3-.6 2.4-.6c0 .1-.8.4-2.3.9s-3.7 1.3-6.6 2.2l-24.4 7.8-80.7 24.9z"/><path d="M421.4 172.7l-83.7 12.2-25.3 3.8-6.9 1.1-1.8.3s-.6.1-.6.1.2 0 .6-.1 1-.1 1.8-.2l6.9-1 25.4-3.8 83.6-12.9 83.6-12.8 25.4-3.6 6.9-.9 2.4-.2s-.8.2-2.4.5l-6.9 1.2-25.3 4-83.7 12.3z"/></g><circle transform="matrix(.7071 -.7071 .7071 .7071 87.418 454.8593)" cx="592.8" cy="121.9" r="49.4" class="W"/><circle transform="matrix(.7071 -.7071 .7071 .7071 91.2768 453.2609)" cx="592.8" cy="116.4" r="49.4" class="V"/><circle transform="matrix(.9737 -.228 .228 .9737 -10.9371 138.2319)" cx="592.8" cy="116.4" r="33.1" fill="#fff"/><g fill="#ebebeb"><circle cx="592.8" cy="116.4" r="16.2"/><path d="M627.2 80.3l-1.3-10.6 10.7-11.4.8 11.3zm23-8.4l-10.8-.9-11 10.5 11 1.2z"/></g><path d="M637.8 68l-15.4 15.4-24.4 24.4-5.6 5.6c-1.8 1.8 1 4.5 2.8 2.7l15.4-15.4L635 76.3l5.6-5.6c1.8-1.7-1-4.4-2.8-2.7h0z" class="W"/><path d="M154.1 112.2c2.1-1.5 4.4-2.7 6.7-3.5l.9-7 11.6-1.1 2.2 6.7c2.5.4 4.9 1.2 7.2 2.2l5.6-4.3 8.9 7.4-3.2 6.4c1.5 2.1 2.7 4.4 3.5 6.7l7 .9 1.1 11.6-6.7 2.2c-.4 2.5-1.2 4.9-2.2 7.2l4.3 5.6-7.4 8.9-6.3-3.2c-2.1 1.5-4.4 2.7-6.7 3.5l-.9 7-11.6 1.1-2.2-6.7c-2.5-.4-4.9-1.2-7.2-2.2l-5.6 4.3-8.9-7.4 3.2-6.3c-1.5-2.1-2.7-4.4-3.5-6.7l-7-.9-1.1-11.6 6.7-2.2c.4-2.5 1.2-4.9 2.2-7.2l-4.3-5.6 7.4-8.9 6.3 3.1h0zm7.3 14.9c-4.4 5.3-3.7 13.2 1.6 17.6s13.2 3.7 17.6-1.6 3.7-13.2-1.6-17.6-13.2-3.7-17.6 1.6zm-35.2-65.9c1.4-1 3-1.8 4.6-2.4l.6-4.7 7.9-.7 1.5 4.6c1.7.3 3.3.8 4.9 1.5l3.8-2.9 6.1 5.1-2.2 4.3c1 1.4 1.8 3 2.4 4.6l4.7.6.7 7.9-4.6 1.5c-.3 1.7-.8 3.3-1.5 4.9l2.9 3.8-5.1 6.1-4.3-2.2c-1.4 1-3 1.8-4.6 2.4l-.6 4.7-7.9.7-1.5-4.6c-1.7-.3-3.3-.8-4.9-1.5l-3.8 2.9-6.1-5.1 2.2-4.3c-1-1.4-1.8-3-2.4-4.6l-4.7-.6-.7-7.9 4.6-1.5c.3-1.7.8-3.3 1.5-4.9l-2.9-3.8 5.1-6.1 4.3 2.2h0zm5 10.2a8.55 8.55 0 0 0 1.1 12 8.55 8.55 0 0 0 12-1.1 8.55 8.55 0 0 0-1.1-12 8.55 8.55 0 0 0-12 1.1z" class="V"/><path d="M100 110.9c.9-.7 2-1.2 3-1.6l.4-3.1 5.2-.5 1 3c1.1.2 2.2.5 3.2 1l2.5-1.9 4 3.3-1.4 2.8c.7.9 1.2 2 1.6 3l3.1.4.5 5.2-3 1c-.2 1.1-.5 2.2-1 3.2l1.9 2.5-3.3 4-2.8-1.4c-.9.7-2 1.2-3 1.6l-.4 3.1-5.2.5-1-3c-1.1-.2-2.2-.5-3.2-1l-2.5 1.9-4-3.3 1.4-2.8c-.7-.9-1.2-2-1.6-3l-3.1-.4-.5-5.2 3-1c.2-1.1.5-2.2 1-3.2l-1.9-2.5 3.3-4 2.8 1.4h0zm3.3 6.7c-2 2.4-1.7 5.9.7 7.9s5.9 1.7 7.9-.7 1.7-5.9-.7-7.9-5.9-1.7-7.9.7z" fill="#ebebeb"/><path d="M666.9 403.9c0 .1-131.2.2-292.9.2-161.8 0-293-.1-293-.2s131.1-.2 293-.2l292.9.2z" class="R"/><path d="M506.3 201.9s17.8 1.2 27.6 17.7c9.9 16.5 19.7 61.3 34.6 71.3s16.1 9.4 16.1 9.4-21.3 5.4-32.9 1.2-22.5-19.4-29.6-40.4c-7.6-22.4-16.2-45.4-34.3-50.3l12.9-8.8h5.6z" fill="#091e3e"/><path d="M586.5 186.4c-.6.4-11.6 22.5-11.6 22.5l5.5-.8s.1 24.4-.7 31.9c-5.3 50.8-19.3 49.3-19.3 49.3l8.7 8.7s12.1 3.8 15.3 2.5c8.8-3.8 19.4-6.9 18.1-67.2-.5-24-2.9-28-2.9-28l7.5-2.1-19.6-16m-102.8 55.7c4.3-37 21.6-41 21.6-41s-43.3-4.5-59 16.9c-15.7 21.5-14.6 34.4-11.4 55.1 3.1 20.7 20.7 79.8 16.6 110.8h51.2c8.7-33.9-23.1-106.8-19-141.8z" class="X"/><path d="M583.9 374.5s26.4 1.6 43.4-57.6c11.2-39 9.7-42.6 9.7-42.6h-13.1l38.8-43.9 26.5 40.4-11.3.6s-10.8 117.3-52.6 122.5l-41.4-19.4z" class="U"/><path d="M510.7 342.3c.7.9 10.2 10.2 10.8 10.8 11.1 10.4 28.4 36.8 53.5 41.7 27.3 5.4 45.5 3.8 59.6-4 0 0-16.5 4.5-36.8-13.9s-36.5-31.8-46.2-36.4c-9.6-4.6-40.9 1.8-40.9 1.8z" fill="#ab2931"/><path d="M395.3 403.4s12.7-21 37.7-41.7c25-20.6 39.5-35.5 80.4-31.9 0 0 26.9 1.1 46.1 15.2 0 0-30.8-8.4-47.5 7.3-17.2 16.1-27.9 41.6-33 51.1" class="U"/><path d="M135.1 340.1c-20.2-7.6-38-27.5-38-27.5l5.8-5.7-42.2-14.7 5.5 35.3 7.8-3.6s29.3 36.7 68 37.2l42.8-19.6c.1.1-25.5 7.6-49.7-1.4z" class="X"/><path d="M262.1 300.9s-4-15.3-19-3.6-24.8 40.8-52.3 55.5c-16.2 8.6-48.6 8.4-48.6 8.4s24.4-14.3 44.4-38.1c14.1-16.7 30.6-48.3 45.4-48.3 21.5-.1 30.1 26.1 30.1 26.1z" fill="#091e3e"/><path d="M231.9 274.7c-2.2-.1 38.5-8.9 51.3 21s14.3 67.8 27.3 88c13 20.1 20.8 20.2 20.8 20.2h-47.9c-13.6-18.1-19.1-55.4-25.7-79.1-6.6-23.8-14-49.3-25.8-50.1z" class="X"/><path d="M107.1 242.5c-19.5-25-35.6-61.3-35.6-61.3l9.8-3.6L37.5 149l-13.7 54.6 7.8-3.9s28.1 96.7 96.1 101.7l33.2-26.9c.1-.2-34.3-7.1-53.8-32z" class="U"/><path d="M225.7 211.9s-3.2-21.7-19.4-7.7-27.4 59.8-61 91.8c-14.9 14.1-43.3-1.5-43.3-1.5s19.2-8.3 47.2-63.9c11.3-22.5 24.5-61.5 46.9-59.2 22.4 2.4 29.6 40.5 29.6 40.5z" fill="#ab2931"/><path d="M196.1 171.4c-2.3-.5 40.4-6.8 51.9 36.5 11.4 43.2 10.7 95.9 22.9 125.6s30.5 51.3 30.5 51.3h-44.5c-13-27-31.8-106.6-37.1-140.4-5.4-33.8-11.5-70.3-23.7-73z" class="U"/><path d="M411.5 130.5l-7.3 65.5c-1.2 11.1-5.3 27.2-22.9 24.5h0c-15-3.5-17.3-18.5-16.1-28.8.6-4.9 1-9 1-9.6 0 0-16.5-3.4-15.9-20.1.3-8 2.3-24.5 4.2-39.5 2.1-16 16.2-27.7 32.3-26.9l1.6.1c17.5 1.9 25.5 17.6 23.1 34.8z" class="S"/><path d="M366.3 182s10.4 1.1 22-5.3c0 0-5.9 11.9-22.4 9.5l.4-4.2z" class="T"/><g class="R"><use xlink:href="#B"/><path d="M381.4 138.5c-.1 1.2.8 2.2 2.1 2.4 1.2.1 2.3-.7 2.4-1.9s-.8-2.2-2-2.4c-1.3-.2-2.4.7-2.5 1.9zm-8.7 12.6c0-.1-1.6-.5-4.1-1-.6-.1-1.3-.3-1.3-.7-.1-.5.2-1.2.5-1.9l2.2-4.9c3-6.9 5.3-12.7 5-12.8s-3 5.4-6 12.3l-2.1 4.9c-.3.7-.8 1.5-.5 2.5.2.5.6.9 1 1s.8.2 1.1.2c2.6.4 4.2.5 4.2.4zm11.8-28.6c.2.6 2.5.5 5.1.9s4.7 1.3 5.1.8c.2-.3-.2-.9-1-1.5-.8-.7-2.2-1.3-3.7-1.6-1.6-.3-3-.1-4 .3-1.1.3-1.6.8-1.5 1.1zm-26 0c.2.5 2.4.2 5.1.5 2.6.2 4.7.8 5.1.4.2-.2-.2-.7-1.1-1.2a9.02 9.02 0 0 0-3.8-1.1c-1.6-.1-3 .1-4 .5-.9.2-1.4.7-1.3.9z"/></g><path d="M409.6 142.7c.3-.1 11.6-2.8 10.7 8.5s-12.1 8.1-12.1 7.7c-.1-.2 1.4-16.2 1.4-16.2z" class="S"/><path d="M411.9 155c.1 0 .2.2.5.3.3.2.9.3 1.5.2 1.2-.3 2.4-2.2 2.6-4.2.1-1 0-2-.3-2.9s-.8-1.5-1.4-1.6c-.6-.2-1 .1-1.2.4s-.1.5-.2.6c0 0-.2-.2-.1-.7.1-.2.2-.5.5-.7a1.39 1.39 0 0 1 1.1-.2c.9.1 1.6 1 1.9 1.9.4.9.6 2.1.4 3.2-.3 2.3-1.6 4.3-3.3 4.7a2.82 2.82 0 0 1-1.8-.4c-.2-.4-.2-.6-.2-.6z" class="T"/><g class="R"><path d="M374.4 159.2c-.1-.3 2.2-.7 4-2.6.9-.9 1.5-2 1.9-2.8s.7-1.3.9-1.2c.1 0 0 .6-.3 1.5s-.8 2.1-1.9 3.1c-1 1.1-2.3 1.6-3.2 1.9-.8.3-1.4.2-1.4.1z"/><use xlink:href="#B" x="-24.3" y="-3.6"/><path d="M357.5 135.5c-.1 1.2.8 2.2 2.1 2.4 1.2.1 2.3-.7 2.4-1.9s-.8-2.2-2-2.4c-1.3-.1-2.4.7-2.5 1.9zm61-3c-.8 3.2-2.8 10.4-5.6 9.7-5.6-1.3-5.3 7.7-8 6.6-2.7-1-3.3-8.2-3-11 .9-8.9 4.3-15.3.6-25.4-2.5-4.1-6.7-6.7-11.5-6.7-4.7 0-9.3 2.5-11.7 6.6-.6-3.1-2.2-7.8-5-9.2s-6.5-1.2-8.9.9c-2.3 2.1-2.9 6.1-1 8.6-1.3.4-2.8-.1-3.5-1.2-.1 1.5.5 2.9 1.5 4-1.1-.3-2.2-1-2.9-1.9l.9 3.9c-4.7.2-9.4-4.2-10.8-8.2-2.1-6.1-.7-12.3 2.6-17.9 3.3-5.5 9.4-9.5 15.8-9.6 6.5-.1 11.9 2.8 14.6 8.7 4.1-3.1 12.6-4.3 17.3-2.3s8.2 6.7 8.9 11.7c2.9-1.3 6.4-.4 8.9 1.5.2.2.4.3.6.5 3.4 3 4.9 7.7 4.2 12.3-.3 1.8-.9 3.7-1.2 5.1-1 4.3-2.8 13.3-2.8 13.3z"/></g><g fill="#455a64"><path d="M360.2 111.1s-.1-.1-.4-.3c-.2-.2-.6-.5-.9-1-.8-.9-1.6-2.5-2-4.6-.3-2.1.1-4.9 2-7.1 1.8-2.2 5-3.8 8.3-3.4 1.7.2 3.2.8 4.5 1.6s2.4 1.8 3.3 2.9c1.9 2.2 2.9 4.5 3.5 6.6a17.81 17.81 0 0 1 .7 5c0 .6-.1 1.1-.1 1.4s-.1.5-.1.5c-.1 0 .4-2.7-.8-6.7a17.76 17.76 0 0 0-3.5-6.4c-1.8-2.1-4.4-4-7.6-4.4s-6.2 1.1-7.9 3.2a8.66 8.66 0 0 0-2 6.8c.2 2.1 1.1 3.6 1.8 4.6.7.9 1.2 1.3 1.2 1.3zm-2 5s-.1-.2-.3-.5l-.9-1.6c-.7-1.4-1.9-3.4-2.7-6.1-.4-1.3-.8-2.9-.8-4.5-.1-1.7.1-3.5.8-5.2.7-1.8 2-3.4 3.7-4.6s3.8-1.9 5.9-2.1c2.2-.2 4.3.2 6.2.8a21.55 21.55 0 0 1 5.2 2.8c3 2.2 5 5.2 5.7 7.9.8 2.8.4 5.1-.2 6.6-.3.7-.6 1.3-.8 1.6s-.4.5-.4.5c-.1 0 .5-.7 1-2.2s.8-3.8 0-6.5c-.7-2.7-2.7-5.5-5.7-7.7-2.9-2.2-6.9-3.9-11.1-3.5-2.1.2-4.1.9-5.7 2s-2.8 2.7-3.5 4.3c-.7 1.7-.9 3.4-.8 5.1 0 1.6.4 3.1.8 4.5.8 2.7 1.9 4.7 2.6 6.1.3.7.6 1.2.8 1.6.1.5.2.7.2.7zm56.3 9.4c-.1-.1 1-.8 2.3-2.5 1.3-1.6 2.8-4.1 3.3-7.3.6-3.1.1-6-.5-8s-1.3-3.1-1.3-3.1.2.2.5.7.7 1.3 1.1 2.3c.7 2 1.3 5 .7 8.2s-2.2 5.8-3.6 7.4c-.7.8-1.3 1.4-1.8 1.7-.4.5-.7.6-.7.6zm-10-.1l1.4-.9c.8-.6 2-1.7 2.7-3.4l.4-1.1-.1 1.1-.4 5.3-.4-.2c1.3-.9 2.5-2.1 3.5-3.6 1.3-1.9 2-3.9 2.3-5.8s.2-3.7-.2-5.2c-.6-2.9-1.8-4.5-1.7-4.5 0 0 .1.1.2.3s.3.5.5.8c.4.7.9 1.9 1.3 3.3.4 1.5.5 3.3.3 5.3-.3 2-1 4.1-2.4 6.1a14.13 14.13 0 0 1-3.6 3.7l-.4.3v-.5l.4-5.3.4.1c-.8 1.8-2 2.9-2.9 3.4-.5.3-.8.5-1.1.6-.1.2-.2.3-.2.2z"/><path d="M400.9 102.4c-.1.1-.6-1.6-2.6-3.1-1-.8-2.4-1.5-4-1.7-1.6-.3-3.5-.1-5.3.6s-3.3 1.8-4.4 3.1-1.8 2.6-2.3 3.8c-.9 2.4-1 4-1.1 4 0 0 0-.4.1-1.1s.3-1.7.7-3c.5-1.2 1.2-2.6 2.3-3.9s2.7-2.5 4.5-3.3c1.9-.7 3.8-.9 5.5-.6s3.1 1.1 4.1 1.9 1.6 1.7 2 2.3c.2.3.3.6.3.8.2.1.2.2.2.2zm-2.8-8.4c0 .1-1.1-.7-3.1-1.1-1.9-.4-4.9-.3-7.5 1.2-2.7 1.5-4.3 3.9-5.2 5.7s-1.2 3-1.3 3c0 0 0-.3.1-.9s.4-1.3.8-2.3c.8-1.9 2.5-4.3 5.3-5.9s5.9-1.7 7.8-1.2c1 .3 1.8.6 2.3.9.6.4.8.6.8.6z"/></g><path d="M330.9 352.5l104.3 1.4s29.2-12.2 37.2-12.5 23.9.7 31.3 12.5c7.6 12.2 8.7 33.8-14.8 49.5-22.8 15.3-127.2 29.4-141.5 28.1L321 396.2v-30.4c.3-1.4 4.7-13.8 4.7-13.8l5.2.5z" class="R"/><path d="M393.3 401.5l54 20.1-24.6 67.4c-6.3-2.7-6.5-42.3-6.5-42.3l-35.1-11.4 12.2-33.8z" class="Y"/><g opacity=".6"><path d="M421 424.7c.8-1.2 2.6-1.5 3.8-.8 1.2.8 1.6 2.6.8 3.8s-3 1.7-4.1.8-1.4-3.1-.4-4" fill="#fff"/></g><g class="R"><path d="M447.4 421.5l-5.5-2-21.6 65.5s.2 3.5 2.4 3.9l24.7-67.4zm-31.9 26.1c.3.1 1.1-1.5 2.7-2.7 1.6-1.3 3.3-1.6 3.3-1.9s-2.1-.6-4.1 1c-1.9 1.4-2.2 3.5-1.9 3.6zm.4 8.1c.3.2 1.4-1 3.2-1.6 1.8-.7 3.4-.4 3.5-.7.2-.3-1.7-1.2-3.9-.4-2.3.7-3.2 2.6-2.8 2.7zm6.9 7.1c.2-.3-1.3-1.3-3.4-1.1s-3.4 1.5-3.2 1.7c.2.3 1.5-.4 3.3-.5 1.8-.2 3.2.2 3.3-.1zm-15-18.7c.4 0 .4-1.7 1.3-3.5.8-1.8 1.9-3 1.7-3.3s-1.9.7-2.8 2.8c-1 2.1-.5 4-.2 4zm-7.4-4.6c.1.1.8-1.2 1.2-3.4.2-1.1.3-2.4.2-3.9l-.3-2.3c-.1-.4-.2-.8-.4-1.3s-1-1-1.7-.8c-.6.2-1.1.7-1.3 1.2s-.2.9-.3 1.3c-.1.8-.1 1.6 0 2.4.1 1.5.5 2.8.9 3.9.9 2.1 1.9 3.1 2 3 .2-.1-.6-1.2-1.2-3.3-.3-1-.5-2.2-.6-3.6l.1-2.2c.1-.8.3-1.4.7-1.5.1 0 .2 0 .4.2.1.2.2.6.3 1 .2.7.3 1.5.4 2.2.2 1.4.1 2.7.1 3.7-.3 2.1-.7 3.4-.5 3.4z"/><path d="M401 439.3c.1-.1-.8-1.2-2.9-2.1a13.19 13.19 0 0 0-3.9-.9l-2.4.1c-.8.2-1.9.3-2.5 1.5-.3.7 0 1.4.4 1.8s.7.6 1.1.8c.7.4 1.5.7 2.3.8 1.5.3 2.9.2 4-.2 2.2-.7 3.1-1.9 3-2-.1-.2-1.2.7-3.2 1.1-1 .2-2.3.2-3.6-.1-.6-.2-1.3-.4-1.9-.8-.7-.4-1.2-.8-1-1.1.1-.3.9-.7 1.5-.8l2.1-.2c1.4 0 2.6.3 3.6.6 2.2.8 3.3 1.6 3.4 1.5z"/></g><path d="M348.7 393.2l-52.3 24.3 29.8 65.2c6.1-3.2 3.1-42.7 3.1-42.7l34.1-14.2-14.7-32.6z" class="Y"/><g opacity=".6"><path d="M323 418.5c-.9-1.1-2.7-1.3-3.9-.5-1.1.9-1.4 2.7-.5 3.8s3.1 1.5 4.1.5 1.2-3.2.1-4.1" fill="#fff"/></g><g class="R"><path d="M296.5 417.4l5.3-2.4 26.7 63.6s.1 3.5-2.1 4.1l-29.9-65.3zm33.7 23.4c-.3.1-1.2-1.4-2.9-2.5s-3.5-1.3-3.5-1.7c-.1-.3 2-.7 4.1.6 2.2 1.5 2.7 3.6 2.3 3.6zm.3 8.2c-.3.2-1.4-.9-3.3-1.4-1.8-.5-3.4-.1-3.5-.4-.2-.3 1.6-1.4 3.9-.7 2.3.5 3.2 2.3 2.9 2.5zm-6.4 7.6c-.2-.3 1.2-1.4 3.3-1.4s3.5 1.2 3.3 1.4c-.2.3-1.6-.2-3.3-.2s-3.1.5-3.3.2zm13.6-19.9c-.4 0-.6-1.7-1.5-3.4-.9-1.8-2.2-2.9-2-3.2.1-.3 2 .5 3 2.6 1.1 2.1.8 4.1.5 4zm7-5.1c-.1.1-.9-1.1-1.5-3.3-.3-1.1-.5-2.4-.5-3.9l.1-2.3c.1-.4.1-.8.3-1.3s.9-1.1 1.6-.9c.7.1 1.1.6 1.4 1.1.2.5.3.9.4 1.3.2.8.2 1.6.2 2.3 0 1.5-.3 2.8-.6 3.9-.7 2.2-1.7 3.2-1.8 3.1-.2-.1.5-1.3.9-3.4.2-1 .4-2.3.3-3.7 0-.7-.1-1.4-.3-2.1-.1-.8-.4-1.4-.8-1.4-.1 0-.2 0-.3.2s-.2.6-.2 1c-.1.7-.2 1.5-.2 2.2 0 1.4.1 2.7.2 3.7.5 2.2 1 3.5.8 3.5z"/><path d="M344 431.4c-.1-.1.8-1.2 2.8-2.3 1-.5 2.3-1 3.8-1.2.7-.1 1.5-.1 2.4-.1.8.1 1.9.2 2.6 1.3.3.6.1 1.4-.3 1.8-.3.4-.7.6-1 .9-.7.5-1.5.8-2.2 1-1.5.4-2.9.4-4 .1-2.3-.5-3.3-1.7-3.2-1.7.1-.2 1.2.6 3.3.9 1 .1 2.3.1 3.5-.4.6-.2 1.3-.5 1.9-.9s1.1-.9.9-1.2c-.1-.3-.9-.6-1.6-.7s-1.5-.1-2.1 0c-1.4.1-2.6.5-3.5.9-2.1.9-3.1 1.8-3.3 1.6z"/><path d="M325.7 352s-45-16.8-61.6-14.6c-9.3 1.2-23.8 8.3-24.9 20.2s1.8 27.8 17.8 35.5 80 36.4 95.2 40.9l53.1 14.8 14.4-41s-78.5-27.2-82.7-30.2c-4.1-3-14.6-7.2-14.6-7.2l3.3-18.4z"/></g><g fill="#455a64"><path d="M482.3 357.5s-.1 0-.3-.1-.5-.2-.9-.3l-3.5-.9c-1.5-.4-3.4-.8-5.6-1s-4.8-.2-7.6 0-5.9.8-9 1.7c-1.6.5-3.2 1.1-4.8 1.9l-4.9 2.4c-6.7 3.2-14.3 6.5-22.3 9.7-16 6.4-31.5 9.5-42.4 12l-13 3c-1.5.4-2.7.6-3.5.8-.4.1-.7.2-.9.2s-.3.1-.3.1.1 0 .3-.1.5-.1.9-.3l3.5-.9c3.1-.8 7.5-1.8 13-3.1 11-2.6 26.3-5.7 42.3-12.1 8-3.2 15.5-6.4 22.3-9.6 1.7-.8 3.3-1.6 4.9-2.4s3.2-1.4 4.8-1.9c3.2-1 6.3-1.4 9.1-1.7 2.8-.2 5.4-.2 7.6.1 2.2.2 4.1.7 5.7 1.1 1.5.4 2.7.8 3.5 1 .4.1.7.2.9.3.1.1.2.1.2.1zm-2.4-5.9c0 .1-1.4-.2-3.6-.4s-5.3-.4-8.6-.3c-3.4.2-6.4.7-8.6 1.1l-3.5.8s.3-.2.9-.4l2.5-.7c2.2-.6 5.2-1.1 8.6-1.3s6.5.1 8.7.4l2.6.5 1 .3zm-173.1 12.3c-.1.1-1.3-.9-3.5-2.2s-5.3-3-8.9-4.3c-3.7-1.3-7.1-2-9.6-2.3l-4.1-.4s.4-.1 1.1-.1l3 .1c2.5.2 6.1.9 9.7 2.1 3.7 1.3 6.8 3 8.9 4.4 1.1.7 1.9 1.3 2.4 1.8.7.6 1 .8 1 .9z"/><path d="M329.4 425s.1 0 .4.1c.2.1.6.2 1 .4l4 1.7c3.5 1.4 8.7 3.3 15.3 5.5 13.3 4.3 32.4 9.9 55.3 15.6l-.3.1 13.9-38.6.1.3-17.2-7.1-95.4-39.3h0 0c-3.9-4.1-7.5-7.7-10.8-10.7-3.3-2.9-6.4-5.2-9.1-6.8-2.6-1.7-4.8-2.7-6.2-3.5-.7-.3-1.3-.6-1.7-.8l-.6-.3s.2.1.6.2c.4.2 1 .4 1.7.7 1.5.7 3.6 1.7 6.3 3.4 2.6 1.6 5.8 3.9 9.1 6.8 3.4 2.9 7 6.5 10.9 10.6h-.1l95.5 39.1 17.2 7.1.2.1-.1.2-14 38.6-.1.2h-.2c-22.9-5.8-42-11.4-55.3-15.8-6.6-2.2-11.8-4.2-15.3-5.6-1.8-.7-3.1-1.3-4-1.7l-1-.5c0 .1-.1 0-.1 0z"/></g><g class="Y"><path d="M440.7 208.4s13 7.5 15.6 16.2c1.6 5.3 13.7 73.5 15.6 86.9 1.9 13.6-2.1 23.4-7.9 27.9-5.7 4.5-23.1 10.4-23.1 10.4l-24.4 7.9-7-17.8 23.3-33.4-2.3-22.5 10.2-75.6z"/><path d="M415.2 196.7l-9.7-5.6s-8.9 10.4-21 9.1-19.3-10.5-19.3-10.5l-36.1 7.3h0c-2.4.5-6.8 2-11.1 8-4.7 6.7-27 36.6-27 36.6h-15.6c-4.3 0-8.3 2.4-10.3 6.2-2.7 5.1-5.9 11.9-5.6 14.7.5 4.8-.4 17.8 6 21.9 2 1.3 9.3 5.2 14.9 4.9 8.3-.4 17.9-4.7 23.5-8.6 4.7-3.3 15.6-14.7 19.8-19.1v.1l2.7 94.7 94.6-2.7 19.6-145.3c.1 0-24.5-11.7-25.4-11.7z"/></g><path d="M323.4 222c.1 0 .4 11.7.6 26.2l.1 26.2c-.1 0-.4-11.7-.6-26.2l-.1-26.2zm128.7 76.6s-.8.1-2.2.4-3.5.8-5.9 1.9c-2.4 1-5.1 2.6-7.8 4.7s-5.5 4.7-8.2 7.6-5.2 5.8-7.5 8.4-4.5 4.8-6.4 6.6-3.6 3.1-4.8 3.9l-1.4.9-.5.3s.2-.1.5-.4c.3-.2.8-.5 1.4-1 1.2-.9 2.8-2.2 4.7-4s4-4 6.3-6.6l7.5-8.4c2.7-2.9 5.5-5.5 8.3-7.6s5.5-3.7 7.9-4.7 4.5-1.5 6-1.7c.7-.1 1.3-.1 1.7-.2.2-.2.4-.2.4-.1zm2.2-6.5c0 .1-1.4.3-3.7.9s-5.3 1.8-8.4 3.6-5.5 4-7.1 5.7l-2.6 2.8s.2-.3.5-.9l1.8-2.2a29.44 29.44 0 0 1 7.1-5.8c3.1-1.8 6.2-3 8.5-3.5 1.1-.3 2.1-.4 2.7-.5l1.2-.1z" class="R"/><g opacity=".3"><path d="M278.2 275.5c5 1.4 11-5.8 15.6-10.4 2.4-2.3 4.8-4.8 5.7-8.1.7-2.7.2-5.5-.8-8.1s-1.8-4.2-3.3-6.5c.4 3.9 1.4 9.8.1 14.7-1.1 4.1-3.7 7.3-6.4 10.4-3 3.5-6.5 6.9-10.9 8"/></g><path d="M299.6 271.4c-.1 0 .5-1.7 1-4.4l.5-4.8c0-1.8-.1-3.8-.4-5.9s-.9-4-1.4-5.7c-.6-1.7-1.3-3.2-1.9-4.4l-2.3-3.9a14.82 14.82 0 0 0 .8.9l.8 1.2c.3.5.7 1 1 1.6.7 1.2 1.4 2.7 2 4.4s1.2 3.7 1.5 5.8.4 4.1.4 6c-.1 1.8-.3 3.5-.6 4.9-.1.7-.3 1.3-.4 1.8s-.3 1-.4 1.4l-.6 1.1zm69.5-78.1c.1.1-1 .8-2.2 1.8s-1.9 2.1-2.1 2c-.1-.1.5-1.3 1.7-2.3 1.3-1.1 2.6-1.6 2.6-1.5zm9.9 5.7c.1.1-.9 1.1-1.6 2.6-.8 1.5-1.1 2.9-1.2 2.8-.1 0-.1-1.5.8-3.1.7-1.4 1.9-2.4 2-2.3zm16.8 6c-.1 0-.5-1.3-1.1-2.8l-1-2.9c.1-.1.9 1.1 1.4 2.7.7 1.6.9 3 .7 3zm10.9-5.2c-.1 0-.5-1.6-1.6-3.4-1-1.8-2.3-2.8-2.2-3 .1-.1 1.6.9 2.7 2.7 1 2 1.2 3.7 1.1 3.7zm31.1 30.7c.1 0-1.5 12.9-3.6 28.9l-4.1 28.8c-.1 0 1.5-12.9 3.6-28.9l4.1-28.8zM296 251.4v1.3c0 .4-.1 1-.2 1.6-.1.3-.1.6-.2 1-.1.3-.2.7-.3 1.1-.3 1.5-1 3.2-1.9 5.1-.9 1.8-2 3.8-3.5 5.6-1.5 1.9-3 3.5-4.6 4.8-1.6 1.2-3.2 2.2-4.6 2.8-.4.1-.7.3-1 .4l-.9.3c-.3.1-.6.2-.8.2-.3.1-.5.1-.7.1l-1.3.1c0-.1 1.9-.2 4.7-1.4 1.4-.6 2.9-1.6 4.5-2.8 1.5-1.3 3.1-2.9 4.5-4.7s2.5-3.8 3.5-5.5c.8-1.8 1.5-3.5 1.9-5 .8-3 .8-5 .9-5z" class="R"/><g opacity=".3"><path d="M434.8 359.7c4-1.9 4.9-7.1 5.3-11.6l3.6-39c.6-6.1.8-13.1-3.5-17.5-3.9-4-10.2-4.2-15.8-4.2l-99.8 1.2 1.8 60.6 108.4 10.5z"/></g><path d="M309.7 298l3.7 70.2c.1 2.7 2.4 4.8 5.1 4.8l111.9.2c2.7 0 5-2.1 5.1-4.8l4.3-69.1c.1-2.9-1.9-6.7-4.8-6.7H314.9c-2.9 0-5.4 2.4-5.2 5.4z" class="W"/><path d="M309.7 298v-.3-.8c.1-.7.4-1.7 1.3-2.7.5-.5 1.1-1 1.9-1.3s1.7-.4 2.7-.4h6.8l43.4-.1 64.3-.1h4.6c.8 0 1.6.2 2.3.6a4.62 4.62 0 0 1 1.7 1.7c.9 1.3 1.4 2.9 1.4 4.5l-.3 4.7-1.2 19.3-2.5 40.7-.2 2.6-.2 2.6c-.3 1.8-1.7 3.3-3.4 4-.8.3-1.8.4-2.6.4h-2.6-5.1-20.1c-13.2 0-25.9-.1-38-.1s-23.6-.1-34.4-.1h-7.9-1.9c-.6 0-1.3 0-1.9-.1-1.3-.2-2.5-.9-3.4-1.9-.8-1-1.3-2.3-1.2-3.5-.1-1.2-.1-2.4-.2-3.6-.1-2.4-.2-4.7-.4-7l-2.2-43.3-.6-11.8c-.1-1.3-.1-2.4-.1-3.1v-.9s0 .4.1 1c0 .7.1 1.7.2 3.1l.7 11.8 2.3 43.3.4 7c.1 1.2.1 2.4.2 3.6 0 1.2.4 2.4 1.2 3.3s1.9 1.6 3.1 1.7c.6.1 1.2 0 1.9.1h1.9 7.9H364l38 .1h20.1 5.1 2.6c.9 0 1.7 0 2.5-.3 1.5-.6 2.8-2 3.1-3.6.1-.8.1-1.7.2-2.6l.2-2.6 2.5-40.7 1.2-19.3.3-4.7c0-1.5-.5-3-1.3-4.3-.8-1.2-2.1-2.2-3.6-2.1h-4.6H366c-18.3 0-33.1-.1-43.4-.1h-6.8c-1 0-1.9 0-2.7.3s-1.4.7-1.8 1.2c-.9 1-1.2 2-1.3 2.7-.3.7-.3 1.1-.3 1.1z" class="R"/><circle cx="375.6" cy="332.2" r="6.6" fill="#fff"/><path d="M382.2 332.2c-.1 0 0-.6-.3-1.6s-.9-2.4-2.4-3.5c-.7-.5-1.6-1-2.7-1.2-1-.2-2.2-.1-3.3.3s-2.2 1.2-2.9 2.2c-.8 1-1.2 2.4-1.2 3.8s.5 2.7 1.2 3.8c.8 1.1 1.8 1.8 2.9 2.2s2.3.5 3.3.3c1.1-.2 2-.6 2.7-1.2 1.5-1.1 2.1-2.5 2.4-3.5s.2-1.6.3-1.6v.4c0 .3 0 .7-.1 1.2-.2 1-.9 2.5-2.4 3.7-.8.6-1.7 1.1-2.8 1.3s-2.4.2-3.6-.3c-1.2-.4-2.4-1.2-3.2-2.4a7.07 7.07 0 0 1-1.3-4 6.83 6.83 0 0 1 1.3-4c.8-1.1 2-1.9 3.2-2.4 1.2-.4 2.5-.5 3.6-.3s2.1.7 2.8 1.3c1.5 1.2 2.2 2.7 2.4 3.7.1.5.1.9.1 1.2v.6zm-68.7-26.4c.1 0 .7 11.8 1.2 26.4l.7 26.4c-.2 0-.7-11.8-1.2-26.4l-.7-26.4z" class="R"/><g class="S"><path d="M279.8 214.1c-.7-.6 2.2-11.6 2.2-11.6s-7.6-12.4-7.8-16.4 3-12.2 3-12.2l21.8-5.6s7 13 8.4 17.6-2.4 20.2-2.4 20.2l-3.7 8s-11.1 8.8-21.5 0z"/><path d="M274.3 188.5s-.9-1.6-2.3-4.8c-1.4-3.3-3.1-6.5 0-8.3 1.8-1.1 3.3-.5 3.3-.5s-.5-2.8 1.2-3.8c1.6-1 3.2-.3 3.2-.3s-.5-3.9 1.8-5.5c3-2.1 6-.2 6-.2l-2-17.9c-.6-3.3.6-6.2 3.9-5.4 1.2.3 1.9 1.6 3.3 7.1l3.7 15s3.8 6.6 5.6 10.2 5.4 11.8 5.7 14c.8 5.6-2.5 13.1-2.5 13.1l-23.1 1.3c-.1 0-6.9-12.4-7.8-14z"/></g><path d="M275.7 175.6c.1 0 .7.9 1.8 2.5l1.8 2.8 1 1.7c.3.6.5 1.4.3 2.2s-.7 1.5-1.5 1.7-1.5 0-2.1-.3-1.1-.6-1.5-1c-.5-.3-.9-.6-1.2-.9l-1.7-1.4-.6-.6c0-.1 1 .7 2.5 1.8l2.8 1.8c.5.2 1.2.4 1.7.2.6-.2 1-.7 1.1-1.4.2-.6 0-1.3-.2-1.9l-.9-1.7-1.7-2.8-1.6-2.7zm19 2c-.1 0-.2-1.7.2-3.6.5-2 1.3-3.4 1.4-3.3s-.5 1.5-1 3.5c-.3 1.8-.4 3.4-.6 3.4z" class="T"/><path d="M303.9 182.6c-2.1-2.1-4.9-3.4-7.7-4-2.9-.6-5.9-.6-8.8-.3-2.4.2-5 .8-6.1 2.9-1.1 2.2.2 5 2.3 6.2s4.7 1.3 7.1 1.1 4.9-.7 7.3-.3" class="S"/><path d="M297.9 188.1s-.7-.1-1.8 0c-1.2 0-2.9.2-5 .5-1.1.1-2.2.2-3.5.1-1.2-.1-2.6-.3-3.9-1s-2.4-1.9-2.9-3.4c-.3-.7-.3-1.6-.2-2.4.2-.8.6-1.6 1.3-2.1 1.3-1.1 2.9-1.5 4.4-1.7s3-.3 4.4-.3c2.8 0 5.3.4 7.4 1.1 2 .7 3.5 1.6 4.4 2.4.5.4.8.7 1 .9s.3.4.3.4l-1.4-1.1c-.9-.7-2.4-1.6-4.4-2.2-2-.7-4.5-1-7.2-1-1.4 0-2.8.1-4.3.3s-3 .6-4.2 1.6c-.6.5-1 1.2-1.1 1.9s-.1 1.5.1 2.2c.5 1.4 1.5 2.5 2.7 3.1s2.5.9 3.7 1 2.4 0 3.4-.1l5-.3c.6 0 1.1.1 1.4.1h.4z" class="T"/><path d="M275.9 175.9c2.4 3.7 4.6 7.8 6.6 11.7.6 1.1 1.2 2.3 2.3 3 .9.5 3.1-.4 4-.8l-6.7-15.2" class="S"/><path d="M282.2 174.6l.6 1.1 1.5 3.2 4.8 10.8.1.2-.2.1c-.7.3-1.5.6-2.3.8-.3.1-.7.1-1 .2-.2 0-.4 0-.5-.1-.2 0-.4-.2-.5-.2-.6-.4-1-.9-1.3-1.4-.7-1.1-1.2-2.2-1.7-3.2l-2.8-5.3s-1.5-2.7-2-3.5-.8-1.3-.7-1.3c0 0 .4.4.9 1.2s1.3 2 2.2 3.5 1.9 3.3 2.9 5.3l1.7 3.1c.3.5.7 1 1.2 1.3.4.3 1.1.2 1.7.1.8-.2 1.5-.5 2.3-.8l-.1.3-4.7-10.9-1.3-3.2c-.7-.9-.8-1.3-.8-1.3z" class="T"/><path d="M280.4 170.1l6.4 16.2c.5 1.1.9 2.3 1.7 3.2s2 1.6 3.2 1.4c1.7-.3 2.8-2 2.9-3.7s-.6-3.3-1.2-4.9c-1.9-4.9-3.5-10-4.6-15.1" class="S"/><path d="M288.9 167.1s.1.2.2.5c.1.4.2.9.4 1.4l1.5 5.2 2.7 7.6c.5 1.4 1.2 2.9 1.4 4.6.1.9-.1 1.8-.5 2.6s-1 1.5-1.9 1.9-1.9.2-2.7-.2-1.4-1.1-1.9-1.8c-.9-1.5-1.4-3-2-4.4l-2.9-7.5-1.9-5.1-.5-1.4c-.1-.3-.2-.5-.1-.5 0 0 .1.2.2.5.2.4.4.8.6 1.4l2.1 5 3 7.5c.6 1.4 1.1 2.9 1.9 4.3.4.7 1 1.3 1.7 1.6.7.4 1.6.5 2.3.2.8-.3 1.3-.9 1.7-1.7.4-.7.5-1.5.4-2.3-.1-1.6-.8-3.1-1.3-4.5l-2.6-7.7-1.4-5.3-.3-1.5c-.1-.2-.1-.4-.1-.4z" class="T"/><path d="M280.9 208l-15.4 45.7c-.6 2.2 2.9 17.7 9.3 21.4s18.8-11.7 20.4-17.3 0-15.2 0-15.2l10-37.5" class="S"/><path d="M295.3 201.2c0 .1-.6.1-1.4-.2-.8-.2-1.9-.8-2.9-1.7s-1.6-2-1.9-2.8-.4-1.4-.3-1.4c.1-.1.7 2.1 2.6 3.8 1.8 1.8 4 2.2 3.9 2.3z" class="T"/><defs ><path id="B" d="M382 132.8c.3.4 2.4-.9 5.1-.7 2.8.2 4.7 1.9 5 1.6.2-.1-.1-.8-.9-1.5s-2.2-1.5-4-1.7c-1.7-.2-3.2.4-4.1 1-.9.5-1.2 1.1-1.1 1.3z"/></defs></svg>